<svg width="42" height="24" viewBox="0 0 42 24" fill="none" xmlns="http://www.w3.org/2000/svg">
<path d="M35.8855 11.664L36.1103 11.848L36.3815 11.7438C36.7924 11.586 37.2283 11.5034 37.6685 11.5C39.6999 11.5009 41.3334 13.1351 41.3334 15.1667C41.3334 17.1989 39.6989 18.8333 37.6668 18.8333C35.6365 18.8333 34.0032 17.202 34.0001 15.1724C34.0049 14.9779 34.0246 14.7839 34.0589 14.5924L34.1107 14.3032L33.8834 14.1172L28.8855 10.0276L28.6302 9.81871L28.3376 9.97126C27.6796 10.3144 26.9492 10.4957 26.207 10.5C25.7541 10.4998 25.3145 10.414 24.8688 10.2845L24.5572 10.1939L24.3476 10.4416L18.2788 17.6124L18.0931 17.8319L18.1894 18.1029C18.3309 18.5009 18.4168 18.9083 18.4168 19.3333C18.4168 21.3655 16.7823 23 14.7501 23C12.7187 23 11.0847 21.3668 11.0834 19.3358C11.0867 19.0217 11.1327 18.7095 11.22 18.4077L11.302 18.124L11.0932 17.9152L5.75364 12.5756L5.54944 12.3714L5.27052 12.4463C4.95677 12.5304 4.64988 12.5833 4.33342 12.5833C2.30122 12.5833 0.666748 10.9489 0.666748 8.91668C0.666748 6.88449 2.30122 5.25001 4.33342 5.25001C6.36561 5.25001 8.00008 6.88449 8.00008 8.91668C8.00008 9.23303 7.94719 9.53913 7.86186 9.8482L7.78437 10.1289L7.99028 10.3348L13.3299 15.6744L13.5341 15.8786L13.813 15.8038C14.1257 15.7199 14.4316 15.667 14.7469 15.6667C14.9639 15.6696 15.1802 15.6911 15.3935 15.7311L15.6794 15.7846L15.8672 15.5626L21.9276 8.40006L22.1383 8.15102L21.9953 7.85783C21.6864 7.22486 21.5001 6.53069 21.5001 5.79168C21.5001 3.18032 23.5971 1.08334 26.2084 1.08334C28.8198 1.08334 30.9168 3.18032 30.9168 5.79168C30.9168 6.21931 30.8401 6.63478 30.7243 7.05462L30.6378 7.3683L30.8896 7.57441L35.8855 11.664Z" fill="black" stroke="black"/>
</svg>
